<svg xmlns="http://www.w3.org/2000/svg" width="192" height="192" viewBox="0 0 192 192">
  <defs>
    <linearGradient id="bg" x1="0" y1="0" x2="1" y2="1">
      <stop offset="0%" stop-color="#2563eb"/>
      <stop offset="100%" stop-color="#1d4ed8"/>
    </linearGradient>
  </defs>
  <rect width="192" height="192" rx="36" fill="url(#bg)"/>
  <g transform="translate(96,88)">
    <rect x="-64" y="-52" width="128" height="88" rx="10" fill="white"/>
    <rect x="-64" y="-52" width="128" height="24" rx="10" fill="#e5e7eb"/>
    <rect x="-40" y="-42" width="12" height="4" rx="2" fill="#9ca3af"/>
    <rect x="-24" y="-42" width="12" height="4" rx="2" fill="#9ca3af"/>
    <rect x="-8" y="-42" width="12" height="4" rx="2" fill="#9ca3af"/>
    <rect x="8" y="-42" width="12" height="4" rx="2" fill="#9ca3af"/>
    <circle cx="-28" cy="-32" r="3" fill="#3b82f6"/>
    <circle cx="-14" cy="-32" r="3" fill="#06b6d4"/>
    <circle cx="0" cy="-32" r="3" fill="#ec4899"/>
    <circle cx="14" cy="-32" r="3" fill="#eab308"/>
    <rect x="-50" y="-16" width="100" height="6" rx="3" fill="#d1d5db"/>
    <rect x="-50" y="-6" width="100" height="6" rx="3" fill="#d1d5db"/>
    <rect x="-50" y="4" width="60" height="6" rx="3" fill="#10b981" opacity="0.5"/>
    <circle cx="32" cy="2" r="14" fill="#10b981"/>
    <path d="M26 2l4 4 7-7" stroke="white" stroke-width="2.5" fill="none" stroke-linecap="round" stroke-linejoin="round"/>
    <rect x="-64" y="36" width="128" height="8" rx="4" fill="white"/>
    <rect x="-28" y="44" width="20" height="14" rx="3" fill="white"/>
    <rect x="8" y="44" width="20" height="14" rx="3" fill="white"/>
    <rect x="-28" y="44" width="20" height="3" rx="1.5" fill="#d1d5db"/>
    <rect x="8" y="44" width="20" height="3" rx="1.5" fill="#d1d5db"/>
  </g>
</svg>
