<svg xmlns="http://www.w3.org/2000/svg" width="192" height="192" viewBox="0 0 192 192">
  <defs>
    <linearGradient id="bg" x1="0" y1="0" x2="1" y2="1">
      <stop offset="0%" stop-color="#2563eb"/>
      <stop offset="100%" stop-color="#1d4ed8"/>
    </linearGradient>
  </defs>
  <rect width="192" height="192" rx="32" fill="url(#bg)"/>
  <g transform="translate(96,96)">
    <rect x="-56" y="-40" width="112" height="72" rx="8" fill="white" opacity="0.95"/>
    <rect x="-44" y="-28" width="88" height="8" rx="2" fill="#2563eb" opacity="0.3"/>
    <rect x="-44" y="-16" width="88" height="8" rx="2" fill="#2563eb" opacity="0.3"/>
    <rect x="-44" y="-4" width="88" height="8" rx="2" fill="#2563eb" opacity="0.3"/>
    <rect x="-44" y="8" width="48" height="8" rx="2" fill="#2563eb" opacity="0.15"/>
    <rect x="-44" y="20" width="32" height="8" rx="2" fill="#10b981" opacity="0.6"/>
    <circle cx="28" cy="14" r="12" fill="#10b981"/>
    <path d="M24 14l3 3 5-5" stroke="white" stroke-width="2" fill="none" stroke-linecap="round" stroke-linejoin="round"/>
    <rect x="-56" y="32" width="112" height="8" rx="2" fill="white" opacity="0.8"/>
    <rect x="-40" y="40" width="16" height="10" rx="2" fill="white" opacity="0.7"/>
    <rect x="24" y="40" width="16" height="10" rx="2" fill="white" opacity="0.7"/>
    <circle cx="-8" cy="44" r="3" fill="#3b82f6" opacity="0.5"/>
    <circle cx="8" cy="44" r="3" fill="#06b6d4" opacity="0.5"/>
    <circle cx="-8" cy="52" r="3" fill="#ec4899" opacity="0.5"/>
    <circle cx="8" cy="52" r="3" fill="#eab308" opacity="0.5"/>
  </g>
</svg>
