<svg xmlns="http://www.w3.org/2000/svg" width="512" height="512" viewBox="0 0 512 512">
  <defs>
    <linearGradient id="bg" x1="0" y1="0" x2="1" y2="1">
      <stop offset="0%" stop-color="#2563eb"/>
      <stop offset="100%" stop-color="#1d4ed8"/>
    </linearGradient>
  </defs>
  <rect width="512" height="512" rx="96" fill="url(#bg)"/>
  <g transform="translate(256,232)">
    <rect x="-172" y="-140" width="344" height="236" rx="24" fill="white"/>
    <rect x="-172" y="-140" width="344" height="64" rx="24" fill="#e5e7eb"/>
    <rect x="-108" y="-112" width="32" height="10" rx="4" fill="#9ca3af"/>
    <rect x="-64" y="-112" width="32" height="10" rx="4" fill="#9ca3af"/>
    <rect x="-20" y="-112" width="32" height="10" rx="4" fill="#9ca3af"/>
    <rect x="24" y="-112" width="32" height="10" rx="4" fill="#9ca3af"/>
    <circle cx="-76" cy="-86" r="8" fill="#3b82f6"/>
    <circle cx="-38" cy="-86" r="8" fill="#06b6d4"/>
    <circle cx="0" cy="-86" r="8" fill="#ec4899"/>
    <circle cx="38" cy="-86" r="8" fill="#eab308"/>
    <rect x="-136" y="-44" width="272" height="16" rx="6" fill="#d1d5db"/>
    <rect x="-136" y="-14" width="272" height="16" rx="6" fill="#d1d5db"/>
    <rect x="-136" y="16" width="164" height="16" rx="6" fill="#10b981" opacity="0.5"/>
    <circle cx="84" cy="8" r="38" fill="#10b981"/>
    <path d="M70 8l12 12 20-20" stroke="white" stroke-width="6" fill="none" stroke-linecap="round" stroke-linejoin="round"/>
    <rect x="-172" y="96" width="344" height="20" rx="8" fill="white"/>
    <rect x="-76" y="116" width="56" height="36" rx="8" fill="white"/>
    <rect x="20" y="116" width="56" height="36" rx="8" fill="white"/>
    <rect x="-76" y="116" width="56" height="8" rx="4" fill="#d1d5db"/>
    <rect x="20" y="116" width="56" height="8" rx="4" fill="#d1d5db"/>
  </g>
</svg>
