<svg xmlns="http://www.w3.org/2000/svg" width="512" height="512" viewBox="0 0 512 512">
  <defs>
    <linearGradient id="bg" x1="0" y1="0" x2="1" y2="1">
      <stop offset="0%" stop-color="#2563eb"/>
      <stop offset="100%" stop-color="#1d4ed8"/>
    </linearGradient>
  </defs>
  <rect width="512" height="512" rx="80" fill="url(#bg)"/>
  <g transform="translate(256,256)">
    <rect x="-148" y="-104" width="296" height="192" rx="20" fill="white" opacity="0.95"/>
    <rect x="-116" y="-76" width="232" height="20" rx="6" fill="#2563eb" opacity="0.3"/>
    <rect x="-116" y="-44" width="232" height="20" rx="6" fill="#2563eb" opacity="0.3"/>
    <rect x="-116" y="-12" width="232" height="20" rx="6" fill="#2563eb" opacity="0.3"/>
    <rect x="-116" y="20" width="128" height="20" rx="6" fill="#2563eb" opacity="0.15"/>
    <rect x="-116" y="52" width="84" height="20" rx="6" fill="#10b981" opacity="0.6"/>
    <circle cx="72" cy="38" r="32" fill="#10b981"/>
    <path d="M62 38l8 8 14-14" stroke="white" stroke-width="5" fill="none" stroke-linecap="round" stroke-linejoin="round"/>
    <rect x="-148" y="84" width="296" height="20" rx="6" fill="white" opacity="0.8"/>
    <rect x="-104" y="104" width="40" height="28" rx="6" fill="white" opacity="0.7"/>
    <rect x="64" y="104" width="40" height="28" rx="6" fill="white" opacity="0.7"/>
    <circle cx="-20" cy="116" r="8" fill="#3b82f6" opacity="0.5"/>
    <circle cx="20" cy="116" r="8" fill="#06b6d4" opacity="0.5"/>
    <circle cx="-20" cy="140" r="8" fill="#ec4899" opacity="0.5"/>
    <circle cx="20" cy="140" r="8" fill="#eab308" opacity="0.5"/>
  </g>
</svg>
